# xmcd
#
# Track frame offsets:
#	150
#	12189
#	26887
#	37226
#	48293
#	62383
#	79665
#	93028
#	105396
#	117995
#	127974
#	141190
#	154219
#	165855
#	177653
#	190576
#	201199
#	212968
#	225644
#	237526
#
# Disc length: 3405 seconds
#
# Revision: 1
# Processed by: cddbd v1.5.1PL2 Copyright (c) Steve Scherf et al.
# Submitted via: audiograbber 1.83.01
#
DISCID=090d4b14
DTITLE=Various Artist - Classic Country - Sweet  Country Ballads
DYEAR=1900
DGENRE=Country
TTITLE0=Eddie Arnold - Make the World Go Away
TTITLE1=Marty Robbins - Don't Worry
TTITLE2=George Jones - Walk Through This  World  With  Me
TTITLE3=Patsy Cline - Leavin' on Your Mind
TTITLE4=Charley Pride - I Can't Believe That You've Stopped Loving Me
TTITLE5=Ray Price - For the Good Times
TTITLE6=Charlie Rich - Behind Closed Doors
TTITLE7=Glen Campbell - By the TIme I Get to Phoenix
TTITLE8=Bobby Bare  - Detroit City
TTITLE9=George Hamilton IV - Abilene
TTITLE10=David Houston - Almost Persuaded
TTITLE11=David Houston, Tammy Wynette - My Elusive Dreams
TTITLE12=Jack Greene - There Goes My Everything
TTITLE13=Don Gibson - I Can't Stop Loving You
TTITLE14=The Browns, Feat. Jim Ed Brown - The Three Bells (Les Trois Cloches)
TTITLE15=Sonny James - Empty Arms
TTITLE16=Jim Reeves - Welcome to My World
TTITLE17=Bill Anderson - Still 
TTITLE18=Skeeter Davis - The End of the World
TTITLE19=Bobby Goldsboro  - Honey
EXTD=
EXTT0=
EXTT1=
EXTT2=
EXTT3=
EXTT4=
EXTT5=
EXTT6=
EXTT7=
EXTT8=
EXTT9=
EXTT10=
EXTT11=
EXTT12=
EXTT13=
EXTT14=
EXTT15=
EXTT16=
EXTT17=
EXTT18=
EXTT19=
PLAYORDER=
